<?xml version="1.0" encoding="UTF-8"?>
<svg xmlns="http://www.w3.org/2000/svg" xmlns:xlink="http://www.w3.org/1999/xlink" width="350px" height="350px" viewBox="0 0 350 350" version="1.1">
<g id="surface1">
<path style=" stroke:none;fill-rule:nonzero;fill:rgb(0%,0%,0%);fill-opacity:1;" d="M 171.324219 75.003906 C 165.496094 75.425781 160.003906 76.246094 155.363281 77.4375 C 134.46875 82.738281 121.503906 95.390625 117.320312 114.539062 C 116.828125 116.863281 116.828125 117.84375 117.40625 118.949219 C 118.019531 120.136719 119.488281 121.238281 120.835938 121.519531 C 121.136719 121.574219 127.207031 122.253906 134.328125 123.023438 C 146.632812 124.355469 147.351562 124.40625 148.066406 124.164062 C 149.640625 123.601562 150.921875 122.097656 151.460938 120.136719 C 153.125 114.273438 154.28125 112.050781 157.203125 109.253906 C 161.28125 105.351562 166.511719 103.425781 173.039062 103.425781 C 177.574219 103.425781 181.054688 104.335938 184.171875 106.347656 C 188.125 108.902344 190.261719 112.613281 191.203125 118.5625 C 191.589844 121.066406 191.78125 133.121094 191.433594 133.246094 C 191.292969 133.296875 188.789062 133.578125 185.851562 133.875 C 159.074219 136.570312 148.976562 138.6875 138.6875 143.761719 C 133.472656 146.316406 129.464844 149.152344 125.71875 152.863281 C 118.613281 159.933594 114.46875 168.613281 112.925781 179.550781 C 112.507812 182.578125 112.507812 190.417969 112.925781 193.601562 C 113.539062 198.152344 114.625 202.335938 116.113281 205.886719 C 120.59375 216.597656 129.148438 223.859375 140.753906 226.800781 C 144.828125 227.816406 146.808594 228.058594 152.003906 228.164062 C 170.273438 228.496094 181.175781 224.121094 194.285156 211.242188 C 195.71875 209.859375 196.890625 208.738281 196.925781 208.792969 C 196.960938 208.828125 197.925781 210.246094 199.0625 211.925781 C 203.472656 218.46875 205.851562 221.183594 211.15625 225.679688 C 212.710938 227.011719 213.832031 227.414062 215.53125 227.273438 C 216.351562 227.21875 216.914062 227.046875 217.683594 226.609375 C 218.277344 226.257812 221.289062 223.773438 224.734375 220.746094 C 228.042969 217.859375 232.714844 213.816406 235.113281 211.765625 C 237.527344 209.71875 239.699219 207.777344 239.960938 207.445312 C 240.609375 206.585938 240.871094 205.257812 240.609375 204.03125 C 240.308594 202.667969 239.835938 201.808594 237.808594 199.0625 C 232.558594 191.976562 230.878906 188.546875 229.671875 182.523438 C 229.390625 181.160156 229.355469 178.273438 229.25 149.1875 C 229.128906 116.09375 229.128906 115.9375 228.359375 110.511719 C 227.078125 101.464844 223.84375 94.65625 218.15625 88.988281 C 210.683594 81.550781 199.886719 77.050781 185.324219 75.320312 C 183.066406 75.058594 173.671875 74.847656 171.324219 75.003906 Z M 191.519531 162.574219 C 191.484375 170.640625 191.34375 173.371094 190.734375 177.101562 C 189.523438 184.34375 186.148438 191.082031 181.527344 195.492188 C 178.851562 198.03125 175.753906 199.796875 172.460938 200.671875 C 170.921875 201.074219 170.378906 201.128906 167.914062 201.128906 C 165.585938 201.128906 164.867188 201.058594 163.710938 200.742188 C 157.710938 199.113281 153.738281 194.582031 152.234375 187.601562 C 151.882812 185.988281 151.828125 185.253906 151.8125 181.738281 C 151.8125 178.21875 151.863281 177.46875 152.214844 175.734375 C 154.648438 163.746094 163.835938 157.167969 180.722656 155.3125 C 183.46875 154.996094 188.265625 154.734375 190.3125 154.769531 L 191.539062 154.789062 Z M 191.519531 162.574219 "/>
</g>
</svg>
