<?xml version="1.0" encoding="UTF-8"?>
<svg xmlns="http://www.w3.org/2000/svg" xmlns:xlink="http://www.w3.org/1999/xlink" width="350px" height="350px" viewBox="0 0 350 350" version="1.1">
<g id="surface1">
<path style=" stroke:none;fill-rule:nonzero;fill:rgb(0%,0%,0%);fill-opacity:1;" d="M 168.109375 87.652344 C 152.359375 88.570312 139.804688 90.890625 126.4375 95.375 C 92.378906 106.792969 63.328125 130.199219 44.929688 161.042969 C 42.898438 164.457031 39.746094 170.296875 40.183594 169.859375 C 40.292969 169.726562 41.148438 168.65625 42.066406 167.453125 C 56.851562 147.917969 77.679688 131.773438 100.625 121.996094 C 114.515625 116.089844 128.558594 112.546875 144.375 110.972656 C 149.886719 110.425781 165.199219 110.425781 170.625 110.972656 C 195.429688 113.488281 217.414062 121.210938 237.34375 134.421875 C 245.832031 140.023438 251.757812 144.855469 259.085938 152.03125 C 266.789062 159.578125 272.5625 166.511719 278.425781 175.195312 C 279.695312 177.078125 280.808594 178.652344 280.917969 178.675781 C 281.203125 178.785156 308.4375 167.125 308.4375 166.882812 C 308.4375 166.773438 307.5625 165.199219 306.511719 163.363281 C 293.191406 140.21875 274.597656 121.558594 251.234375 107.867188 C 247.230469 105.523438 238.152344 101.019531 233.777344 99.203125 C 217.351562 92.445312 201.140625 88.746094 183.226562 87.71875 C 179.726562 87.523438 170.953125 87.476562 168.109375 87.652344 Z M 168.109375 87.652344 "/>
<path style=" stroke:none;fill-rule:nonzero;fill:rgb(0%,0%,0%);fill-opacity:1;" d="M 169.09375 131.382812 C 153.804688 132.476562 140.875 135.929688 127.96875 142.40625 C 107.667969 152.601562 91.285156 169.007812 81.046875 189.414062 C 79.429688 192.652344 78.707031 194.25 78.859375 194.25 C 78.902344 194.25 79.601562 193.398438 80.433594 192.324219 C 85.355469 186.023438 92.269531 179.265625 99.007812 174.191406 C 110.949219 165.179688 125.933594 158.660156 140.546875 156.101562 C 147.460938 154.898438 149.1875 154.765625 157.9375 154.765625 C 165.242188 154.765625 166.554688 154.832031 169.859375 155.269531 C 181.429688 156.84375 191.800781 159.972656 201.664062 164.914062 C 215.46875 171.851562 228.179688 182.589844 237.234375 195.015625 C 237.933594 195.976562 238.546875 196.808594 238.570312 196.851562 C 238.613281 196.898438 244.933594 194.25 252.632812 190.96875 L 266.613281 185.019531 L 265.671875 183.421875 C 252.460938 161.085938 232.378906 144.746094 208.25 136.71875 C 200.460938 134.117188 193.964844 132.695312 185.71875 131.796875 C 182.699219 131.46875 171.761719 131.207031 169.09375 131.382812 Z M 169.09375 131.382812 "/>
<path style=" stroke:none;fill-rule:nonzero;fill:rgb(0%,0%,0%);fill-opacity:1;" d="M 0 188.695312 L 0.0234375 204.203125 L 87.347656 240.582031 C 135.363281 260.574219 174.824219 276.9375 175 276.9375 C 175.175781 276.9375 214.636719 260.574219 262.652344 240.582031 L 349.976562 204.203125 L 350 188.695312 C 350 176.3125 349.933594 173.226562 349.714844 173.316406 C 349.476562 173.402344 319.132812 186.351562 284.988281 200.945312 C 279.234375 203.394531 269.804688 207.417969 264.03125 209.890625 C 258.257812 212.363281 248.804688 216.386719 243.03125 218.859375 C 237.257812 221.332031 227.804688 225.355469 222.03125 227.828125 C 216.257812 230.300781 206.828125 234.324219 201.074219 236.773438 C 195.34375 239.226562 187.117188 242.746094 182.832031 244.585938 L 175 247.910156 L 167.191406 244.585938 C 162.882812 242.746094 154.65625 239.226562 148.925781 236.773438 C 143.171875 234.324219 133.742188 230.300781 127.96875 227.828125 C 110.226562 220.238281 103.710938 217.480469 85.96875 209.890625 C 80.195312 207.417969 70.765625 203.394531 65.035156 200.945312 C 30.867188 186.351562 0.523438 173.402344 0.285156 173.316406 C 0.0664062 173.226562 0 176.3125 0 188.695312 Z M 0 188.695312 "/>
<path style=" stroke:none;fill-rule:nonzero;fill:rgb(0%,0%,0%);fill-opacity:1;" d="M 166.292969 175.21875 C 148.53125 176.945312 133.042969 186.398438 123.089844 201.578125 C 121.273438 204.378906 119.304688 208.140625 118.058594 211.203125 C 116.527344 214.964844 116.527344 214.921875 118.605469 212.929688 C 126.984375 205.011719 137.132812 200.113281 148.117188 198.710938 C 151.746094 198.253906 159.578125 198.382812 162.640625 198.929688 C 173.730469 200.945312 183.136719 205.867188 191.035156 213.761719 C 192.324219 215.074219 193.441406 216.125 193.527344 216.125 C 193.617188 216.125 199.960938 213.457031 207.636719 210.175781 L 221.59375 204.226562 L 221.003906 203.242188 C 219.164062 200.046875 215.972656 195.914062 212.820312 192.609375 C 205.078125 184.539062 194.03125 178.390625 183.203125 176.203125 C 178.324219 175.21875 170.886719 174.78125 166.292969 175.21875 Z M 166.292969 175.21875 "/>
</g>
</svg>
