<?xml version="1.0" encoding="UTF-8"?>
<svg xmlns="http://www.w3.org/2000/svg" xmlns:xlink="http://www.w3.org/1999/xlink" width="350px" height="350px" viewBox="0 0 350 350" version="1.1">
<g id="surface1">
<path style=" stroke:none;fill-rule:nonzero;fill:rgb(0%,0%,0%);fill-opacity:1;" d="M 167.140625 66.035156 C 155.65625 67.8125 146.765625 70.890625 139.109375 75.878906 C 124.003906 85.789062 113.953125 102.195312 109.648438 124.140625 C 107.9375 132.6875 107.9375 152.441406 109.578125 160.984375 C 113.132812 178.898438 119.628906 191.542969 130.773438 202.070312 C 137.742188 208.703125 146.015625 213.210938 155.65625 215.8125 C 161.53125 217.382812 163.652344 217.585938 173.289062 217.585938 C 182.929688 217.585938 185.046875 217.382812 190.789062 215.878906 C 210.820312 210.476562 226.542969 197.625 232.765625 181.492188 C 233.789062 178.828125 234.882812 176.09375 235.226562 175.34375 C 235.566406 174.589844 235.703125 187.234375 235.632812 204.394531 C 235.429688 233.171875 235.359375 235.085938 233.925781 240.28125 C 228.457031 260.382812 215.8125 272.140625 194.824219 276.648438 C 185.867188 278.5625 165.90625 278.359375 157.570312 276.308594 C 139.65625 271.796875 128.445312 261.40625 124.34375 245.546875 C 123.664062 242.742188 123.046875 239.257812 123.046875 237.753906 L 123.046875 235.15625 L 116.894531 235.15625 L 116.894531 238.4375 C 116.894531 243.15625 119.21875 251.765625 122.089844 257.714844 C 125.851562 265.304688 133.574219 272.753906 142.1875 277.0625 C 152.234375 282.050781 163.3125 284.375 176.570312 284.375 C 208.976562 284.375 230.03125 271.660156 238.234375 247.324219 C 241.992188 236.046875 241.992188 235.5 241.992188 148.820312 L 241.992188 68.976562 L 239.121094 69.179688 L 236.179688 69.382812 L 235.976562 90.578125 L 235.773438 111.765625 L 233.445312 105.410156 C 226.679688 86.75 211.4375 72.9375 191.75 67.675781 C 186.414062 66.242188 171.992188 65.28125 167.140625 66.035156 Z M 190.789062 73.757812 C 197.078125 75.398438 204.734375 79.09375 209.863281 83.054688 C 230.371094 98.847656 239.875 129.953125 233.71875 160.917969 C 228.523438 186.6875 211.914062 204.734375 188.195312 210.34375 C 180.8125 212.050781 165.019531 212.050781 158.25 210.273438 C 135.96875 204.460938 120.996094 187.101562 115.734375 160.917969 C 114.09375 152.507812 114.09375 133.300781 115.734375 124.960938 C 118.808594 109.578125 124.890625 97.273438 133.984375 88.183594 C 142.734375 79.433594 151.894531 75.058594 167.480469 72.1875 C 171.445312 71.4375 185.734375 72.390625 190.789062 73.757812 Z M 190.789062 73.757812 "/>
</g>
</svg>
