<?xml version="1.0" encoding="UTF-8"?>
<svg xmlns="http://www.w3.org/2000/svg" xmlns:xlink="http://www.w3.org/1999/xlink" width="350px" height="350px" viewBox="0 0 350 350" version="1.1">
<g id="surface1">
<path style=" stroke:none;fill-rule:nonzero;fill:rgb(0%,0%,0%);fill-opacity:1;" d="M 163.800781 15.050781 C 148.226562 16.308594 132.546875 19.671875 119.351562 24.570312 C 81.375 38.675781 50.503906 66.148438 32.199219 102.023438 C 16.34375 133.140625 11.09375 168.59375 17.183594 203.351562 C 24.21875 243.53125 46.164062 279.195312 78.925781 303.800781 C 101.011719 320.355469 127.433594 330.960938 155.398438 334.425781 C 167.300781 335.894531 181.929688 335.964844 193.550781 334.601562 C 207.375 332.988281 221.269531 329.523438 233.800781 324.554688 C 261.101562 313.773438 284.164062 295.398438 300.71875 271.25 C 319.199219 244.300781 329.210938 208.390625 328.195312 172.550781 C 327.949219 163.800781 327.109375 157.046875 325.078125 147.59375 L 324.730469 145.949219 L 249.96875 146.019531 L 175.175781 146.125 L 175.070312 176.398438 C 175.035156 193.058594 175.070312 207.023438 175.175781 207.480469 L 175.351562 208.25 L 261.101562 208.25 L 260.855469 209.371094 C 260.75 210 260.15625 212.238281 259.523438 214.375 C 250.566406 244.859375 226.34375 264.039062 190.398438 269.046875 C 183.996094 269.921875 168.140625 269.921875 161.875 269.011719 C 123.761719 263.550781 92.679688 235.621094 83.265625 198.34375 C 81.128906 189.910156 80.710938 185.988281 80.710938 175.175781 C 80.710938 164.359375 81.128906 160.441406 83.265625 152.003906 C 91.804688 118.265625 118.265625 91.804688 152.003906 83.265625 C 158.898438 81.515625 164.324219 80.816406 172.410156 80.605469 C 184.976562 80.253906 195.089844 81.796875 206.324219 85.785156 C 214.304688 88.621094 225.574219 94.78125 232.015625 99.820312 L 234.253906 101.570312 L 257.601562 78.226562 L 280.980469 54.84375 L 278.878906 53.058594 C 268.730469 44.484375 256.898438 36.75 244.824219 30.835938 C 228.515625 22.820312 211.050781 17.78125 191.800781 15.539062 C 186.269531 14.910156 169.261719 14.59375 163.800781 15.050781 Z M 163.800781 15.050781 "/>
</g>
</svg>
